<svg width="512" height="512" viewBox="0 0 512 512" fill="none" xmlns="http://www.w3.org/2000/svg">
  <defs>
    <linearGradient id="grad1" x1="0%" y1="0%" x2="100%" y2="0%">
      <stop offset="0%" style="stop-color:#059669;stop-opacity:1" />
      <stop offset="100%" style="stop-color:#3B82F6;stop-opacity:1" />
    </linearGradient>
  </defs>
  
  <!-- Top Left Square -->
  <rect x="18" y="16" width="184" height="184" rx="24" fill="url(#grad1)"/>
  <rect x="54" y="52" width="112" height="112" rx="8" fill="white"/>
  <circle cx="110" cy="108" r="28" fill="#059669"/>
  
  <!-- Top Right Square -->
  <rect x="286" y="16" width="208" height="184" rx="24" fill="url(#grad1)"/>
  <rect x="322" y="52" width="136" height="112" rx="8" fill="white"/>
  <circle cx="390" cy="108" r="28" fill="#059669"/>
  
  <!-- Connecting Dots -->
  <circle cx="248" cy="32" r="16" fill="#3B82F6"/>
  <circle cx="26" cy="256" r="14" fill="#059669"/>
  <circle cx="464" cy="256" r="14" fill="#3B82F6"/>
  
  <!-- Connecting Lines -->
  <rect x="74" y="236" width="156" height="40" rx="20" fill="url(#grad1)"/>
  <rect x="306" y="236" width="126" height="40" rx="20" fill="url(#grad1)"/>
  
  <!-- Bottom Left Square -->
  <rect x="26" y="290" width="184" height="184" rx="24" fill="url(#grad1)"/>
  <rect x="64" y="328" width="108" height="108" rx="8" fill="white"/>
  
  <!-- Bottom Right Square -->
  <rect x="228" y="290" width="258" height="184" rx="24" fill="#059669"/>
</svg>
